<svg xmlns="http://www.w3.org/2000/svg" xmlns:xlink="http://www.w3.org/1999/xlink" width="500" zoomAndPan="magnify" viewBox="0 0 375 374.999991" height="500" preserveAspectRatio="xMidYMid meet" version="1.0"><defs><g/><clipPath id="50668c8a67"><path d="M 28.777344 28.777344 L 346.027344 28.777344 L 346.027344 346.027344 L 28.777344 346.027344 Z M 28.777344 28.777344 " clip-rule="nonzero"/></clipPath><clipPath id="68d45d8bac"><path d="M 28.777344 155.109375 L 346.222656 155.109375 L 346.222656 219.886719 L 28.777344 219.886719 Z M 28.777344 155.109375 " clip-rule="nonzero"/></clipPath></defs><g clip-path="url(#50668c8a67)"><path fill="#663333" d="M 346.214844 187.496094 C 346.214844 190.09375 346.152344 192.691406 346.023438 195.285156 C 345.898438 197.878906 345.707031 200.46875 345.453125 203.054688 C 345.199219 205.640625 344.878906 208.21875 344.5 210.785156 C 344.117188 213.355469 343.671875 215.914062 343.167969 218.460938 C 342.660156 221.011719 342.089844 223.542969 341.460938 226.0625 C 340.828125 228.582031 340.136719 231.085938 339.382812 233.570312 C 338.628906 236.058594 337.8125 238.523438 336.9375 240.96875 C 336.0625 243.414062 335.128906 245.835938 334.132812 248.238281 C 333.140625 250.636719 332.089844 253.011719 330.976562 255.359375 C 329.867188 257.707031 328.699219 260.027344 327.476562 262.316406 C 326.25 264.609375 324.972656 266.867188 323.636719 269.09375 C 322.300781 271.324219 320.910156 273.515625 319.46875 275.675781 C 318.023438 277.835938 316.527344 279.960938 314.980469 282.046875 C 313.433594 284.132812 311.835938 286.179688 310.1875 288.1875 C 308.542969 290.195312 306.84375 292.160156 305.101562 294.085938 C 303.355469 296.011719 301.566406 297.890625 299.730469 299.730469 C 297.890625 301.566406 296.011719 303.355469 294.085938 305.101562 C 292.160156 306.84375 290.195312 308.542969 288.1875 310.1875 C 286.179688 311.835938 284.132812 313.433594 282.046875 314.980469 C 279.960938 316.527344 277.835938 318.023438 275.675781 319.46875 C 273.515625 320.910156 271.324219 322.300781 269.09375 323.636719 C 266.867188 324.972656 264.609375 326.25 262.316406 327.476562 C 260.027344 328.699219 257.707031 329.867188 255.359375 330.976562 C 253.011719 332.089844 250.636719 333.140625 248.238281 334.132812 C 245.835938 335.128906 243.414062 336.0625 240.96875 336.9375 C 238.523438 337.8125 236.058594 338.628906 233.570312 339.382812 C 231.085938 340.136719 228.582031 340.828125 226.0625 341.460938 C 223.542969 342.089844 221.011719 342.660156 218.460938 343.167969 C 215.914062 343.671875 213.355469 344.117188 210.785156 344.5 C 208.21875 344.878906 205.640625 345.199219 203.054688 345.453125 C 200.46875 345.707031 197.878906 345.898438 195.285156 346.023438 C 192.691406 346.152344 190.09375 346.214844 187.496094 346.214844 C 184.898438 346.214844 182.304688 346.152344 179.710938 346.023438 C 177.117188 345.898438 174.527344 345.707031 171.941406 345.453125 C 169.355469 345.199219 166.777344 344.878906 164.207031 344.5 C 161.640625 344.117188 159.082031 343.671875 156.535156 343.167969 C 153.984375 342.660156 151.453125 342.089844 148.933594 341.460938 C 146.414062 340.828125 143.910156 340.136719 141.425781 339.382812 C 138.9375 338.628906 136.472656 337.8125 134.027344 336.9375 C 131.582031 336.0625 129.160156 335.128906 126.757812 334.132812 C 124.359375 333.140625 121.984375 332.089844 119.636719 330.976562 C 117.289062 329.867188 114.96875 328.699219 112.679688 327.476562 C 110.386719 326.25 108.128906 324.972656 105.898438 323.636719 C 103.671875 322.300781 101.476562 320.910156 99.316406 319.46875 C 97.160156 318.023438 95.035156 316.527344 92.949219 314.980469 C 90.863281 313.433594 88.816406 311.835938 86.808594 310.1875 C 84.800781 308.542969 82.832031 306.84375 80.910156 305.101562 C 78.984375 303.355469 77.101562 301.566406 75.265625 299.730469 C 73.429688 297.890625 71.640625 296.011719 69.894531 294.085938 C 68.152344 292.160156 66.453125 290.195312 64.804688 288.1875 C 63.160156 286.179688 61.5625 284.132812 60.015625 282.046875 C 58.464844 279.960938 56.972656 277.835938 55.527344 275.675781 C 54.085938 273.515625 52.695312 271.324219 51.359375 269.09375 C 50.023438 266.867188 48.746094 264.609375 47.519531 262.316406 C 46.296875 260.027344 45.128906 257.707031 44.019531 255.359375 C 42.90625 253.011719 41.855469 250.636719 40.859375 248.238281 C 39.867188 245.835938 38.933594 243.414062 38.058594 240.96875 C 37.183594 238.523438 36.367188 236.058594 35.613281 233.570312 C 34.859375 231.085938 34.167969 228.582031 33.535156 226.0625 C 32.90625 223.542969 32.335938 221.011719 31.828125 218.460938 C 31.320312 215.914062 30.878906 213.355469 30.496094 210.785156 C 30.117188 208.21875 29.796875 205.640625 29.542969 203.054688 C 29.289062 200.46875 29.097656 197.878906 28.96875 195.285156 C 28.84375 192.691406 28.777344 190.09375 28.777344 187.496094 C 28.777344 184.898438 28.84375 182.304688 28.96875 179.710938 C 29.097656 177.117188 29.289062 174.527344 29.542969 171.941406 C 29.796875 169.355469 30.117188 166.777344 30.496094 164.207031 C 30.878906 161.640625 31.320312 159.082031 31.828125 156.535156 C 32.335938 153.984375 32.90625 151.453125 33.535156 148.933594 C 34.167969 146.414062 34.859375 143.910156 35.613281 141.425781 C 36.367188 138.9375 37.183594 136.472656 38.058594 134.027344 C 38.933594 131.582031 39.867188 129.160156 40.859375 126.757812 C 41.855469 124.359375 42.90625 121.984375 44.019531 119.636719 C 45.128906 117.289062 46.296875 114.96875 47.519531 112.679688 C 48.746094 110.386719 50.023438 108.128906 51.359375 105.898438 C 52.695312 103.671875 54.085938 101.476562 55.527344 99.316406 C 56.972656 97.160156 58.464844 95.035156 60.015625 92.949219 C 61.5625 90.863281 63.160156 88.816406 64.804688 86.808594 C 66.453125 84.800781 68.152344 82.832031 69.894531 80.910156 C 71.640625 78.984375 73.429688 77.101562 75.265625 75.265625 C 77.101562 73.429688 78.984375 71.640625 80.910156 69.894531 C 82.832031 68.152344 84.800781 66.453125 86.808594 64.804688 C 88.816406 63.160156 90.863281 61.5625 92.949219 60.015625 C 95.035156 58.464844 97.160156 56.972656 99.316406 55.527344 C 101.476562 54.085938 103.671875 52.695312 105.898438 51.359375 C 108.128906 50.023438 110.386719 48.746094 112.679688 47.519531 C 114.96875 46.296875 117.289062 45.128906 119.636719 44.019531 C 121.984375 42.90625 124.359375 41.855469 126.757812 40.859375 C 129.160156 39.867188 131.582031 38.933594 134.027344 38.058594 C 136.472656 37.183594 138.9375 36.367188 141.425781 35.613281 C 143.910156 34.859375 146.414062 34.167969 148.933594 33.535156 C 151.453125 32.90625 153.984375 32.335938 156.535156 31.828125 C 159.082031 31.320312 161.640625 30.878906 164.207031 30.496094 C 166.777344 30.117188 169.355469 29.796875 171.941406 29.542969 C 174.527344 29.289062 177.117188 29.097656 179.710938 28.96875 C 182.304688 28.84375 184.898438 28.777344 187.496094 28.777344 C 190.09375 28.777344 192.691406 28.84375 195.285156 28.96875 C 197.878906 29.097656 200.46875 29.289062 203.054688 29.542969 C 205.640625 29.796875 208.21875 30.117188 210.785156 30.496094 C 213.355469 30.878906 215.914062 31.320312 218.460938 31.828125 C 221.011719 32.335938 223.542969 32.90625 226.0625 33.535156 C 228.582031 34.167969 231.085938 34.859375 233.570312 35.613281 C 236.058594 36.367188 238.523438 37.183594 240.96875 38.058594 C 243.414062 38.933594 245.835938 39.867188 248.238281 40.859375 C 250.636719 41.855469 253.011719 42.90625 255.359375 44.019531 C 257.707031 45.128906 260.027344 46.296875 262.316406 47.519531 C 264.609375 48.746094 266.867188 50.023438 269.09375 51.359375 C 271.324219 52.695312 273.515625 54.085938 275.675781 55.527344 C 277.835938 56.972656 279.960938 58.464844 282.046875 60.015625 C 284.132812 61.5625 286.179688 63.160156 288.1875 64.804688 C 290.195312 66.453125 292.160156 68.152344 294.085938 69.894531 C 296.011719 71.640625 297.890625 73.429688 299.730469 75.265625 C 301.566406 77.101562 303.355469 78.984375 305.101562 80.910156 C 306.84375 82.832031 308.542969 84.800781 310.1875 86.808594 C 311.835938 88.816406 313.433594 90.863281 314.980469 92.949219 C 316.527344 95.035156 318.023438 97.160156 319.46875 99.316406 C 320.910156 101.476562 322.300781 103.671875 323.636719 105.898438 C 324.972656 108.128906 326.25 110.386719 327.476562 112.679688 C 328.699219 114.96875 329.867188 117.289062 330.976562 119.636719 C 332.089844 121.984375 333.140625 124.359375 334.132812 126.757812 C 335.128906 129.160156 336.0625 131.582031 336.9375 134.027344 C 337.8125 136.472656 338.628906 138.9375 339.382812 141.425781 C 340.136719 143.910156 340.828125 146.414062 341.460938 148.933594 C 342.089844 151.453125 342.660156 153.984375 343.167969 156.535156 C 343.671875 159.082031 344.117188 161.640625 344.5 164.207031 C 344.878906 166.777344 345.199219 169.355469 345.453125 171.941406 C 345.707031 174.527344 345.898438 177.117188 346.023438 179.710938 C 346.152344 182.304688 346.214844 184.898438 346.214844 187.496094 Z M 346.214844 187.496094 " fill-opacity="1" fill-rule="nonzero"/></g><path fill="#fffefa" d="M 329.890625 187.496094 C 329.890625 189.828125 329.832031 192.15625 329.71875 194.484375 C 329.601562 196.8125 329.433594 199.136719 329.203125 201.453125 C 328.976562 203.773438 328.691406 206.085938 328.347656 208.390625 C 328.007812 210.695312 327.609375 212.992188 327.152344 215.277344 C 326.699219 217.5625 326.1875 219.835938 325.621094 222.097656 C 325.054688 224.355469 324.433594 226.601562 323.757812 228.832031 C 323.082031 231.0625 322.351562 233.273438 321.566406 235.46875 C 320.78125 237.660156 319.941406 239.835938 319.050781 241.988281 C 318.160156 244.140625 317.214844 246.269531 316.21875 248.378906 C 315.222656 250.484375 314.175781 252.566406 313.074219 254.621094 C 311.976562 256.675781 310.828125 258.703125 309.628906 260.703125 C 308.433594 262.699219 307.1875 264.667969 305.890625 266.605469 C 304.597656 268.542969 303.253906 270.449219 301.867188 272.320312 C 300.480469 274.191406 299.046875 276.027344 297.566406 277.828125 C 296.089844 279.632812 294.566406 281.394531 293.003906 283.121094 C 291.4375 284.847656 289.832031 286.535156 288.183594 288.183594 C 286.535156 289.832031 284.847656 291.4375 283.121094 293.003906 C 281.394531 294.566406 279.632812 296.089844 277.828125 297.566406 C 276.027344 299.046875 274.191406 300.480469 272.320312 301.867188 C 270.449219 303.253906 268.542969 304.597656 266.605469 305.890625 C 264.667969 307.1875 262.699219 308.433594 260.703125 309.628906 C 258.703125 310.828125 256.675781 311.976562 254.621094 313.074219 C 252.566406 314.175781 250.484375 315.222656 248.378906 316.21875 C 246.269531 317.214844 244.140625 318.160156 241.988281 319.050781 C 239.835938 319.941406 237.660156 320.78125 235.46875 321.566406 C 233.273438 322.351562 231.0625 323.082031 228.832031 323.757812 C 226.601562 324.433594 224.355469 325.054688 222.097656 325.621094 C 219.835938 326.1875 217.5625 326.699219 215.277344 327.152344 C 212.992188 327.609375 210.695312 328.007812 208.390625 328.347656 C 206.085938 328.691406 203.773438 328.976562 201.453125 329.203125 C 199.136719 329.433594 196.8125 329.601562 194.484375 329.71875 C 192.15625 329.832031 189.828125 329.890625 187.496094 329.890625 C 185.167969 329.890625 182.839844 329.832031 180.511719 329.71875 C 178.183594 329.601562 175.859375 329.433594 173.542969 329.203125 C 171.222656 328.976562 168.910156 328.691406 166.605469 328.347656 C 164.300781 328.007812 162.003906 327.609375 159.71875 327.152344 C 157.433594 326.699219 155.160156 326.1875 152.898438 325.621094 C 150.640625 325.054688 148.394531 324.433594 146.164062 323.757812 C 143.933594 323.082031 141.722656 322.351562 139.527344 321.566406 C 137.332031 320.78125 135.160156 319.941406 133.007812 319.050781 C 130.855469 318.160156 128.722656 317.214844 126.617188 316.21875 C 124.511719 315.222656 122.429688 314.175781 120.375 313.074219 C 118.320312 311.976562 116.292969 310.828125 114.292969 309.628906 C 112.296875 308.433594 110.328125 307.1875 108.390625 305.890625 C 106.453125 304.597656 104.546875 303.253906 102.675781 301.867188 C 100.804688 300.480469 98.96875 299.046875 97.164062 297.566406 C 95.363281 296.089844 93.601562 294.566406 91.875 293.003906 C 90.148438 291.4375 88.460938 289.832031 86.8125 288.183594 C 85.164062 286.535156 83.558594 284.847656 81.992188 283.121094 C 80.429688 281.394531 78.90625 279.632812 77.429688 277.828125 C 75.949219 276.027344 74.515625 274.191406 73.128906 272.320312 C 71.738281 270.449219 70.398438 268.542969 69.105469 266.605469 C 67.808594 264.667969 66.5625 262.699219 65.363281 260.703125 C 64.167969 258.703125 63.019531 256.675781 61.921875 254.621094 C 60.820312 252.566406 59.773438 250.484375 58.777344 248.378906 C 57.78125 246.269531 56.835938 244.140625 55.945312 241.988281 C 55.054688 239.835938 54.214844 237.660156 53.429688 235.46875 C 52.644531 233.273438 51.914062 231.0625 51.238281 228.832031 C 50.5625 226.601562 49.941406 224.355469 49.375 222.097656 C 48.808594 219.835938 48.296875 217.5625 47.84375 215.277344 C 47.386719 212.992188 46.988281 210.695312 46.648438 208.390625 C 46.304688 206.085938 46.019531 203.773438 45.792969 201.453125 C 45.5625 199.136719 45.390625 196.8125 45.277344 194.484375 C 45.164062 192.15625 45.105469 189.828125 45.105469 187.496094 C 45.105469 185.167969 45.164062 182.839844 45.277344 180.511719 C 45.390625 178.183594 45.5625 175.859375 45.792969 173.542969 C 46.019531 171.222656 46.304688 168.910156 46.648438 166.605469 C 46.988281 164.300781 47.386719 162.003906 47.84375 159.71875 C 48.296875 157.433594 48.808594 155.160156 49.375 152.898438 C 49.941406 150.640625 50.5625 148.394531 51.238281 146.164062 C 51.914062 143.933594 52.644531 141.722656 53.429688 139.527344 C 54.214844 137.332031 55.054688 135.160156 55.945312 133.007812 C 56.835938 130.855469 57.78125 128.722656 58.777344 126.617188 C 59.773438 124.511719 60.820312 122.429688 61.921875 120.375 C 63.019531 118.320312 64.167969 116.292969 65.363281 114.292969 C 66.5625 112.296875 67.808594 110.328125 69.105469 108.390625 C 70.398438 106.453125 71.738281 104.546875 73.128906 102.675781 C 74.515625 100.804688 75.949219 98.96875 77.429688 97.164062 C 78.90625 95.363281 80.429688 93.601562 81.992188 91.875 C 83.558594 90.148438 85.164062 88.460938 86.8125 86.8125 C 88.460938 85.164062 90.148438 83.558594 91.875 81.992188 C 93.601562 80.429688 95.363281 78.90625 97.164062 77.429688 C 98.96875 75.949219 100.804688 74.515625 102.675781 73.128906 C 104.546875 71.738281 106.453125 70.398438 108.390625 69.105469 C 110.328125 67.808594 112.296875 66.5625 114.292969 65.363281 C 116.292969 64.167969 118.320312 63.019531 120.375 61.921875 C 122.429688 60.820312 124.511719 59.773438 126.617188 58.777344 C 128.722656 57.78125 130.855469 56.835938 133.007812 55.945312 C 135.160156 55.054688 137.332031 54.214844 139.527344 53.429688 C 141.722656 52.644531 143.933594 51.914062 146.164062 51.238281 C 148.394531 50.5625 150.640625 49.941406 152.898438 49.375 C 155.160156 48.808594 157.433594 48.296875 159.71875 47.84375 C 162.003906 47.386719 164.300781 46.988281 166.605469 46.648438 C 168.910156 46.304688 171.222656 46.019531 173.542969 45.792969 C 175.859375 45.5625 178.183594 45.390625 180.511719 45.277344 C 182.839844 45.164062 185.167969 45.105469 187.496094 45.105469 C 189.828125 45.105469 192.15625 45.164062 194.484375 45.277344 C 196.8125 45.390625 199.136719 45.5625 201.453125 45.792969 C 203.773438 46.019531 206.085938 46.304688 208.390625 46.648438 C 210.695312 46.988281 212.992188 47.386719 215.277344 47.84375 C 217.5625 48.296875 219.835938 48.808594 222.097656 49.375 C 224.355469 49.941406 226.601562 50.5625 228.832031 51.238281 C 231.0625 51.914062 233.273438 52.644531 235.46875 53.429688 C 237.660156 54.214844 239.835938 55.054688 241.988281 55.945312 C 244.140625 56.835938 246.269531 57.78125 248.378906 58.777344 C 250.484375 59.773438 252.566406 60.820312 254.621094 61.921875 C 256.675781 63.019531 258.703125 64.167969 260.703125 65.363281 C 262.699219 66.5625 264.667969 67.808594 266.605469 69.105469 C 268.542969 70.398438 270.449219 71.738281 272.320312 73.128906 C 274.191406 74.515625 276.027344 75.949219 277.828125 77.429688 C 279.632812 78.90625 281.394531 80.429688 283.121094 81.992188 C 284.847656 83.558594 286.535156 85.164062 288.183594 86.8125 C 289.832031 88.460938 291.4375 90.148438 293.003906 91.875 C 294.566406 93.601562 296.089844 95.363281 297.566406 97.164062 C 299.046875 98.96875 300.480469 100.804688 301.867188 102.675781 C 303.253906 104.546875 304.597656 106.453125 305.890625 108.390625 C 307.1875 110.328125 308.433594 112.296875 309.628906 114.292969 C 310.828125 116.292969 311.976562 118.320312 313.074219 120.375 C 314.175781 122.429688 315.222656 124.511719 316.21875 126.617188 C 317.214844 128.722656 318.160156 130.855469 319.050781 133.007812 C 319.941406 135.160156 320.78125 137.332031 321.566406 139.527344 C 322.351562 141.722656 323.082031 143.933594 323.757812 146.164062 C 324.433594 148.394531 325.054688 150.640625 325.621094 152.898438 C 326.1875 155.160156 326.699219 157.433594 327.152344 159.71875 C 327.609375 162.003906 328.007812 164.300781 328.347656 166.605469 C 328.691406 168.910156 328.976562 171.222656 329.203125 173.542969 C 329.433594 175.859375 329.601562 178.183594 329.71875 180.511719 C 329.832031 182.839844 329.890625 185.167969 329.890625 187.496094 Z M 329.890625 187.496094 " fill-opacity="1" fill-rule="nonzero"/><path fill="#8b008b" d="M 305.585938 187.496094 C 305.585938 189.429688 305.539062 191.363281 305.445312 193.292969 C 305.351562 195.222656 305.207031 197.148438 305.019531 199.074219 C 304.828125 200.996094 304.59375 202.914062 304.308594 204.824219 C 304.027344 206.738281 303.695312 208.640625 303.320312 210.535156 C 302.941406 212.429688 302.519531 214.316406 302.046875 216.191406 C 301.578125 218.066406 301.0625 219.929688 300.503906 221.777344 C 299.941406 223.625 299.335938 225.460938 298.683594 227.28125 C 298.035156 229.101562 297.339844 230.902344 296.597656 232.6875 C 295.859375 234.472656 295.074219 236.242188 294.25 237.988281 C 293.421875 239.734375 292.554688 241.460938 291.644531 243.164062 C 290.734375 244.871094 289.78125 246.550781 288.785156 248.207031 C 287.792969 249.867188 286.757812 251.496094 285.6875 253.105469 C 284.613281 254.710938 283.5 256.292969 282.347656 257.84375 C 281.195312 259.394531 280.007812 260.917969 278.78125 262.414062 C 277.554688 263.90625 276.292969 265.371094 274.996094 266.800781 C 273.699219 268.234375 272.367188 269.632812 271 271 C 269.632812 272.367188 268.234375 273.699219 266.800781 274.996094 C 265.371094 276.292969 263.90625 277.554688 262.414062 278.78125 C 260.917969 280.007812 259.394531 281.195312 257.84375 282.347656 C 256.292969 283.5 254.710938 284.613281 253.105469 285.6875 C 251.496094 286.757812 249.867188 287.792969 248.207031 288.785156 C 246.550781 289.78125 244.871094 290.734375 243.164062 291.644531 C 241.460938 292.554688 239.734375 293.421875 237.988281 294.25 C 236.242188 295.074219 234.472656 295.859375 232.6875 296.597656 C 230.902344 297.339844 229.101562 298.035156 227.28125 298.683594 C 225.460938 299.335938 223.625 299.941406 221.777344 300.503906 C 219.929688 301.0625 218.066406 301.578125 216.191406 302.046875 C 214.316406 302.519531 212.429688 302.941406 210.535156 303.320312 C 208.640625 303.695312 206.738281 304.027344 204.824219 304.308594 C 202.914062 304.59375 200.996094 304.828125 199.074219 305.019531 C 197.148438 305.207031 195.222656 305.351562 193.292969 305.445312 C 191.363281 305.539062 189.429688 305.585938 187.496094 305.585938 C 185.566406 305.585938 183.632812 305.539062 181.703125 305.445312 C 179.773438 305.351562 177.847656 305.207031 175.921875 305.019531 C 174 304.828125 172.082031 304.59375 170.171875 304.308594 C 168.257812 304.027344 166.355469 303.695312 164.460938 303.320312 C 162.5625 302.941406 160.679688 302.519531 158.804688 302.046875 C 156.929688 301.578125 155.066406 301.0625 153.21875 300.503906 C 151.367188 299.941406 149.535156 299.335938 147.714844 298.683594 C 145.894531 298.035156 144.09375 297.339844 142.308594 296.597656 C 140.519531 295.859375 138.753906 295.074219 137.007812 294.25 C 135.261719 293.421875 133.535156 292.554688 131.832031 291.644531 C 130.125 290.734375 128.445312 289.78125 126.789062 288.785156 C 125.128906 287.792969 123.496094 286.757812 121.890625 285.6875 C 120.285156 284.613281 118.703125 283.5 117.152344 282.347656 C 115.597656 281.195312 114.078125 280.007812 112.582031 278.78125 C 111.089844 277.554688 109.625 276.292969 108.195312 274.996094 C 106.761719 273.699219 105.363281 272.367188 103.996094 271 C 102.628906 269.632812 101.296875 268.234375 100 266.800781 C 98.699219 265.371094 97.4375 263.90625 96.214844 262.414062 C 94.988281 260.917969 93.796875 259.394531 92.648438 257.84375 C 91.496094 256.292969 90.382812 254.710938 89.308594 253.105469 C 88.234375 251.496094 87.203125 249.867188 86.207031 248.207031 C 85.214844 246.550781 84.261719 244.871094 83.351562 243.164062 C 82.441406 241.460938 81.570312 239.734375 80.746094 237.988281 C 79.917969 236.242188 79.136719 234.472656 78.398438 232.6875 C 77.65625 230.902344 76.960938 229.101562 76.3125 227.28125 C 75.660156 225.460938 75.054688 223.625 74.492188 221.777344 C 73.933594 219.929688 73.417969 218.066406 72.945312 216.191406 C 72.476562 214.316406 72.054688 212.429688 71.675781 210.535156 C 71.300781 208.640625 70.96875 206.738281 70.6875 204.824219 C 70.402344 202.914062 70.167969 200.996094 69.976562 199.074219 C 69.789062 197.148438 69.644531 195.222656 69.550781 193.292969 C 69.457031 191.363281 69.40625 189.429688 69.40625 187.496094 C 69.40625 185.566406 69.457031 183.632812 69.550781 181.703125 C 69.644531 179.773438 69.789062 177.847656 69.976562 175.921875 C 70.167969 174 70.402344 172.082031 70.6875 170.171875 C 70.96875 168.257812 71.300781 166.355469 71.675781 164.460938 C 72.054688 162.5625 72.476562 160.679688 72.945312 158.804688 C 73.417969 156.929688 73.933594 155.066406 74.492188 153.21875 C 75.054688 151.367188 75.660156 149.535156 76.3125 147.714844 C 76.960938 145.894531 77.65625 144.09375 78.398438 142.308594 C 79.136719 140.519531 79.917969 138.753906 80.746094 137.007812 C 81.570312 135.261719 82.441406 133.535156 83.351562 131.832031 C 84.261719 130.125 85.214844 128.445312 86.207031 126.789062 C 87.203125 125.128906 88.234375 123.496094 89.308594 121.890625 C 90.382812 120.285156 91.496094 118.703125 92.648438 117.152344 C 93.796875 115.597656 94.988281 114.078125 96.214844 112.582031 C 97.4375 111.089844 98.699219 109.625 100 108.195312 C 101.296875 106.761719 102.628906 105.363281 103.996094 103.996094 C 105.363281 102.628906 106.761719 101.296875 108.195312 100 C 109.625 98.699219 111.089844 97.4375 112.582031 96.214844 C 114.078125 94.988281 115.597656 93.796875 117.152344 92.648438 C 118.703125 91.496094 120.285156 90.382812 121.890625 89.308594 C 123.496094 88.234375 125.128906 87.203125 126.789062 86.207031 C 128.445312 85.214844 130.125 84.261719 131.832031 83.351562 C 133.535156 82.441406 135.261719 81.570312 137.007812 80.746094 C 138.753906 79.917969 140.519531 79.136719 142.308594 78.398438 C 144.09375 77.65625 145.894531 76.960938 147.714844 76.3125 C 149.535156 75.660156 151.367188 75.054688 153.21875 74.492188 C 155.066406 73.933594 156.929688 73.417969 158.804688 72.945312 C 160.679688 72.476562 162.5625 72.054688 164.460938 71.675781 C 166.355469 71.300781 168.257812 70.96875 170.171875 70.6875 C 172.082031 70.402344 174 70.167969 175.921875 69.976562 C 177.847656 69.789062 179.773438 69.644531 181.703125 69.550781 C 183.632812 69.457031 185.566406 69.40625 187.496094 69.40625 C 189.429688 69.40625 191.363281 69.457031 193.292969 69.550781 C 195.222656 69.644531 197.148438 69.789062 199.074219 69.976562 C 200.996094 70.167969 202.914062 70.402344 204.824219 70.6875 C 206.738281 70.96875 208.640625 71.300781 210.535156 71.675781 C 212.429688 72.054688 214.316406 72.476562 216.191406 72.945312 C 218.066406 73.417969 219.929688 73.933594 221.777344 74.492188 C 223.625 75.054688 225.460938 75.660156 227.28125 76.3125 C 229.101562 76.960938 230.902344 77.65625 232.6875 78.398438 C 234.472656 79.136719 236.242188 79.917969 237.988281 80.746094 C 239.734375 81.570312 241.460938 82.441406 243.164062 83.351562 C 244.871094 84.261719 246.550781 85.214844 248.207031 86.207031 C 249.867188 87.203125 251.496094 88.234375 253.105469 89.308594 C 254.710938 90.382812 256.292969 91.496094 257.84375 92.648438 C 259.394531 93.796875 260.917969 94.988281 262.414062 96.214844 C 263.90625 97.4375 265.371094 98.699219 266.800781 100 C 268.234375 101.296875 269.632812 102.628906 271 103.996094 C 272.367188 105.363281 273.699219 106.761719 274.996094 108.195312 C 276.292969 109.625 277.554688 111.089844 278.78125 112.582031 C 280.007812 114.078125 281.195312 115.597656 282.347656 117.152344 C 283.5 118.703125 284.613281 120.285156 285.6875 121.890625 C 286.757812 123.496094 287.792969 125.128906 288.785156 126.789062 C 289.78125 128.445312 290.734375 130.125 291.644531 131.832031 C 292.554688 133.535156 293.421875 135.261719 294.25 137.007812 C 295.074219 138.753906 295.859375 140.519531 296.597656 142.308594 C 297.339844 144.09375 298.035156 145.894531 298.683594 147.714844 C 299.335938 149.535156 299.941406 151.367188 300.503906 153.21875 C 301.0625 155.066406 301.578125 156.929688 302.046875 158.804688 C 302.519531 160.679688 302.941406 162.5625 303.320312 164.460938 C 303.695312 166.355469 304.027344 168.257812 304.308594 170.171875 C 304.59375 172.082031 304.828125 174 305.019531 175.921875 C 305.207031 177.847656 305.351562 179.773438 305.445312 181.703125 C 305.539062 183.632812 305.585938 185.566406 305.585938 187.496094 Z M 305.585938 187.496094 " fill-opacity="1" fill-rule="nonzero"/><path fill="#e4c8e4" d="M 305.207031 176.484375 C 305.585938 179.902344 305.585938 183.699219 305.585938 187.496094 C 305.585938 252.808594 252.808594 305.585938 187.496094 305.585938 C 160.160156 305.585938 135.097656 296.472656 114.972656 280.90625 C 114.59375 277.109375 114.59375 273.3125 114.59375 269.515625 C 114.59375 204.203125 167.375 151.425781 232.683594 151.425781 C 260.023438 151.425781 285.082031 160.917969 305.207031 176.484375 Z M 305.207031 176.484375 " fill-opacity="1" fill-rule="evenodd"/><g clip-path="url(#68d45d8bac)"><path fill="#fffefa" d="M 28.777344 155.109375 L 346.222656 155.109375 L 346.222656 219.886719 L 28.777344 219.886719 Z M 28.777344 155.109375 " fill-opacity="1" fill-rule="nonzero"/></g><g fill="#8b008b" fill-opacity="0.4"><g transform="translate(39.254416, 203.502056)"><g><path d="M 2.40625 -4.8125 L 7.21875 -4.8125 L 7.21875 -28.875 L 2.40625 -28.875 Z M 7.21875 0 L 21.65625 0 L 21.65625 -4.8125 L 7.21875 -4.8125 Z M 7.21875 -28.875 L 21.65625 -28.875 L 21.65625 -33.6875 L 7.21875 -33.6875 Z M 21.65625 -4.8125 L 26.46875 -4.8125 L 26.46875 -9.625 L 21.65625 -9.625 Z M 21.65625 -24.0625 L 26.46875 -24.0625 L 26.46875 -28.875 L 21.65625 -28.875 Z M 21.65625 -24.0625 "/></g></g></g><g fill="#8b008b" fill-opacity="0.4"><g transform="translate(68.124744, 203.502056)"><g><path d="M 21.65625 -4.8125 L 7.21875 -4.8125 L 7.21875 0 L 21.65625 0 Z M 2.40625 -4.8125 L 7.21875 -4.8125 L 7.21875 -33.6875 L 2.40625 -33.6875 Z M 21.65625 -4.8125 L 26.46875 -4.8125 L 26.46875 -33.6875 L 21.65625 -33.6875 Z M 21.65625 -4.8125 "/></g></g></g><g fill="#8b008b" fill-opacity="0.4"><g transform="translate(96.995073, 203.502056)"><g><path d="M 21.65625 0 L 26.46875 0 L 26.46875 -33.6875 L 21.65625 -33.6875 L 21.65625 -28.875 L 16.84375 -28.875 L 16.84375 -24.0625 L 21.65625 -24.0625 Z M 2.40625 0 L 7.21875 0 L 7.21875 -24.0625 L 12.03125 -24.0625 L 12.03125 -28.875 L 7.21875 -28.875 L 7.21875 -33.6875 L 2.40625 -33.6875 Z M 12.03125 -19.25 L 16.84375 -19.25 L 16.84375 -24.0625 L 12.03125 -24.0625 Z M 12.03125 -19.25 "/></g></g></g><g fill="#8b008b" fill-opacity="0.4"><g transform="translate(125.865402, 203.502056)"><g><path d="M 2.40625 0 L 21.65625 0 L 21.65625 -4.8125 L 7.21875 -4.8125 L 7.21875 -14.4375 L 21.65625 -14.4375 L 21.65625 -19.25 L 7.21875 -19.25 L 7.21875 -28.875 L 21.65625 -28.875 L 21.65625 -33.6875 L 2.40625 -33.6875 Z M 21.65625 -4.8125 L 26.46875 -4.8125 L 26.46875 -14.4375 L 21.65625 -14.4375 Z M 21.65625 -19.25 L 26.46875 -19.25 L 26.46875 -28.875 L 21.65625 -28.875 Z M 21.65625 -19.25 "/></g></g></g><g fill="#8b008b" fill-opacity="0.4"><g transform="translate(154.73573, 203.502056)"><g><path d="M 21.65625 -4.8125 L 7.21875 -4.8125 L 7.21875 0 L 21.65625 0 Z M 2.40625 -4.8125 L 7.21875 -4.8125 L 7.21875 -33.6875 L 2.40625 -33.6875 Z M 21.65625 -4.8125 L 26.46875 -4.8125 L 26.46875 -33.6875 L 21.65625 -33.6875 Z M 21.65625 -4.8125 "/></g></g></g><g fill="#8b008b" fill-opacity="0.4"><g transform="translate(183.606059, 203.502056)"><g><path d="M 2.40625 -4.8125 L 7.21875 -4.8125 L 7.21875 -28.875 L 2.40625 -28.875 Z M 7.21875 0 L 21.65625 0 L 21.65625 -4.8125 L 7.21875 -4.8125 Z M 7.21875 -28.875 L 21.65625 -28.875 L 21.65625 -33.6875 L 7.21875 -33.6875 Z M 21.65625 -4.8125 L 26.46875 -4.8125 L 26.46875 -9.625 L 21.65625 -9.625 Z M 21.65625 -24.0625 L 26.46875 -24.0625 L 26.46875 -28.875 L 21.65625 -28.875 Z M 21.65625 -24.0625 "/></g></g></g><g fill="#8b008b" fill-opacity="0.4"><g transform="translate(212.476387, 203.502056)"><g><path d="M 2.40625 0 L 7.21875 0 L 7.21875 -9.625 L 21.65625 -9.625 L 21.65625 0 L 26.46875 0 L 26.46875 -28.875 L 21.65625 -28.875 L 21.65625 -14.4375 L 7.21875 -14.4375 L 7.21875 -28.875 L 2.40625 -28.875 Z M 7.21875 -28.875 L 21.65625 -28.875 L 21.65625 -33.6875 L 7.21875 -33.6875 Z M 7.21875 -28.875 "/></g></g></g><g fill="#8b008b" fill-opacity="0.4"><g transform="translate(241.346716, 203.502056)"><g/></g></g><g fill="#8b008b" fill-opacity="0.4"><g transform="translate(253.376012, 203.502056)"><g><path d="M 2.40625 0 L 21.65625 0 L 21.65625 -4.8125 L 7.21875 -4.8125 L 7.21875 -28.875 L 21.65625 -28.875 L 21.65625 -33.6875 L 2.40625 -33.6875 Z M 21.65625 -4.8125 L 26.46875 -4.8125 L 26.46875 -28.875 L 21.65625 -28.875 Z M 21.65625 -4.8125 "/></g></g></g><g fill="#8b008b" fill-opacity="0.4"><g transform="translate(282.246341, 203.502056)"><g><path d="M 2.40625 0 L 26.421875 0 L 26.421875 -4.8125 L 7.21875 -4.8125 L 7.21875 -14.4375 L 21.65625 -14.4375 L 21.65625 -19.25 L 7.21875 -19.25 L 7.21875 -28.875 L 26.46875 -28.875 L 26.46875 -33.6875 L 2.40625 -33.6875 Z M 2.40625 0 "/></g></g></g><g fill="#8b008b" fill-opacity="0.4"><g transform="translate(311.116669, 203.502056)"><g><path d="M 21.65625 -19.25 L 16.84375 -19.25 L 16.84375 -9.625 L 21.65625 -9.625 Z M 2.40625 -19.25 L 7.21875 -19.25 L 7.21875 -33.6875 L 2.40625 -33.6875 Z M 7.21875 -9.625 L 12.03125 -9.625 L 12.03125 -19.25 L 7.21875 -19.25 Z M 12.03125 0 L 16.84375 0 L 16.84375 -9.625 L 12.03125 -9.625 Z M 21.65625 -19.25 L 26.46875 -19.25 L 26.46875 -33.6875 L 21.65625 -33.6875 Z M 21.65625 -19.25 "/></g></g></g><g fill="#8b008b" fill-opacity="1"><g transform="translate(37.12735, 201.374987)"><g><path d="M 2.40625 -4.8125 L 7.21875 -4.8125 L 7.21875 -28.875 L 2.40625 -28.875 Z M 7.21875 0 L 21.65625 0 L 21.65625 -4.8125 L 7.21875 -4.8125 Z M 7.21875 -28.875 L 21.65625 -28.875 L 21.65625 -33.6875 L 7.21875 -33.6875 Z M 21.65625 -4.8125 L 26.46875 -4.8125 L 26.46875 -9.625 L 21.65625 -9.625 Z M 21.65625 -24.0625 L 26.46875 -24.0625 L 26.46875 -28.875 L 21.65625 -28.875 Z M 21.65625 -24.0625 "/></g></g></g><g fill="#8b008b" fill-opacity="1"><g transform="translate(65.997678, 201.374987)"><g><path d="M 21.65625 -4.8125 L 7.21875 -4.8125 L 7.21875 0 L 21.65625 0 Z M 2.40625 -4.8125 L 7.21875 -4.8125 L 7.21875 -33.6875 L 2.40625 -33.6875 Z M 21.65625 -4.8125 L 26.46875 -4.8125 L 26.46875 -33.6875 L 21.65625 -33.6875 Z M 21.65625 -4.8125 "/></g></g></g><g fill="#8b008b" fill-opacity="1"><g transform="translate(94.868007, 201.374987)"><g><path d="M 21.65625 0 L 26.46875 0 L 26.46875 -33.6875 L 21.65625 -33.6875 L 21.65625 -28.875 L 16.84375 -28.875 L 16.84375 -24.0625 L 21.65625 -24.0625 Z M 2.40625 0 L 7.21875 0 L 7.21875 -24.0625 L 12.03125 -24.0625 L 12.03125 -28.875 L 7.21875 -28.875 L 7.21875 -33.6875 L 2.40625 -33.6875 Z M 12.03125 -19.25 L 16.84375 -19.25 L 16.84375 -24.0625 L 12.03125 -24.0625 Z M 12.03125 -19.25 "/></g></g></g><g fill="#8b008b" fill-opacity="1"><g transform="translate(123.738335, 201.374987)"><g><path d="M 2.40625 0 L 21.65625 0 L 21.65625 -4.8125 L 7.21875 -4.8125 L 7.21875 -14.4375 L 21.65625 -14.4375 L 21.65625 -19.25 L 7.21875 -19.25 L 7.21875 -28.875 L 21.65625 -28.875 L 21.65625 -33.6875 L 2.40625 -33.6875 Z M 21.65625 -4.8125 L 26.46875 -4.8125 L 26.46875 -14.4375 L 21.65625 -14.4375 Z M 21.65625 -19.25 L 26.46875 -19.25 L 26.46875 -28.875 L 21.65625 -28.875 Z M 21.65625 -19.25 "/></g></g></g><g fill="#8b008b" fill-opacity="1"><g transform="translate(152.608664, 201.374987)"><g><path d="M 21.65625 -4.8125 L 7.21875 -4.8125 L 7.21875 0 L 21.65625 0 Z M 2.40625 -4.8125 L 7.21875 -4.8125 L 7.21875 -33.6875 L 2.40625 -33.6875 Z M 21.65625 -4.8125 L 26.46875 -4.8125 L 26.46875 -33.6875 L 21.65625 -33.6875 Z M 21.65625 -4.8125 "/></g></g></g><g fill="#8b008b" fill-opacity="1"><g transform="translate(181.478993, 201.374987)"><g><path d="M 2.40625 -4.8125 L 7.21875 -4.8125 L 7.21875 -28.875 L 2.40625 -28.875 Z M 7.21875 0 L 21.65625 0 L 21.65625 -4.8125 L 7.21875 -4.8125 Z M 7.21875 -28.875 L 21.65625 -28.875 L 21.65625 -33.6875 L 7.21875 -33.6875 Z M 21.65625 -4.8125 L 26.46875 -4.8125 L 26.46875 -9.625 L 21.65625 -9.625 Z M 21.65625 -24.0625 L 26.46875 -24.0625 L 26.46875 -28.875 L 21.65625 -28.875 Z M 21.65625 -24.0625 "/></g></g></g><g fill="#8b008b" fill-opacity="1"><g transform="translate(210.349321, 201.374987)"><g><path d="M 2.40625 0 L 7.21875 0 L 7.21875 -9.625 L 21.65625 -9.625 L 21.65625 0 L 26.46875 0 L 26.46875 -28.875 L 21.65625 -28.875 L 21.65625 -14.4375 L 7.21875 -14.4375 L 7.21875 -28.875 L 2.40625 -28.875 Z M 7.21875 -28.875 L 21.65625 -28.875 L 21.65625 -33.6875 L 7.21875 -33.6875 Z M 7.21875 -28.875 "/></g></g></g><g fill="#8b008b" fill-opacity="1"><g transform="translate(239.21965, 201.374987)"><g/></g></g><g fill="#8b008b" fill-opacity="1"><g transform="translate(251.248946, 201.374987)"><g><path d="M 2.40625 0 L 21.65625 0 L 21.65625 -4.8125 L 7.21875 -4.8125 L 7.21875 -28.875 L 21.65625 -28.875 L 21.65625 -33.6875 L 2.40625 -33.6875 Z M 21.65625 -4.8125 L 26.46875 -4.8125 L 26.46875 -28.875 L 21.65625 -28.875 Z M 21.65625 -4.8125 "/></g></g></g><g fill="#8b008b" fill-opacity="1"><g transform="translate(280.119274, 201.374987)"><g><path d="M 2.40625 0 L 26.421875 0 L 26.421875 -4.8125 L 7.21875 -4.8125 L 7.21875 -14.4375 L 21.65625 -14.4375 L 21.65625 -19.25 L 7.21875 -19.25 L 7.21875 -28.875 L 26.46875 -28.875 L 26.46875 -33.6875 L 2.40625 -33.6875 Z M 2.40625 0 "/></g></g></g><g fill="#8b008b" fill-opacity="1"><g transform="translate(308.989603, 201.374987)"><g><path d="M 21.65625 -19.25 L 16.84375 -19.25 L 16.84375 -9.625 L 21.65625 -9.625 Z M 2.40625 -19.25 L 7.21875 -19.25 L 7.21875 -33.6875 L 2.40625 -33.6875 Z M 7.21875 -9.625 L 12.03125 -9.625 L 12.03125 -19.25 L 7.21875 -19.25 Z M 12.03125 0 L 16.84375 0 L 16.84375 -9.625 L 12.03125 -9.625 Z M 21.65625 -19.25 L 26.46875 -19.25 L 26.46875 -33.6875 L 21.65625 -33.6875 Z M 21.65625 -19.25 "/></g></g></g></svg>